<svg xmlns="http://www.w3.org/2000/svg" width="24" height="24" fill="none">
  <g fill="#F4F4FD" clip-path="url(#a)">
    <path d="M23.994 24.0001v-.001H24v-8.802c0-4.306-.927-7.623-5.961-7.623-2.42 0-4.044 1.328-4.707 2.587h-.07v-2.185H8.48901v16.023H13.459v-7.934c0-2.089.396-4.109 2.983-4.109 2.549 0 2.587 2.384 2.587 4.243v7.801h4.965ZM.395996 7.97693H5.372V23.9999H.395996V7.97693ZM2.882 0C1.291 0 0 1.291 0 2.882c0 1.591 1.291 2.909 2.882 2.909 1.591 0 2.882-1.318 2.882-2.909C5.763 1.291 4.472 0 2.882 0Z"/>
  </g>
  <defs>
    <clipPath id="a">
      <path fill="#fff" d="M0 0h24v24H0z"/>
    </clipPath>
  </defs>
</svg>
