<svg xmlns="http://www.w3.org/2000/svg" width="24" height="24" fill="none">
  <g clip-path="url(#a)">
    <path fill="#F4F4FD" d="M24 4.5585c-.8925.3915-1.8435.651-2.835.777 1.02-.609 1.7985-1.566 2.1645-2.7195-.951.567-2.001.9675-3.12 1.191-.903-.9615-2.19-1.557-3.594-1.557-2.724 0-4.917 2.211-4.917 4.9215 0 .39.033.765.114 1.122-4.0905-.1995-7.71-2.16-10.1415-5.1465-.4245.7365-.6735 1.5795-.6735 2.487 0 1.704.8775 3.2145 2.1855 4.089-.7905-.015-1.566-.2445-2.223-.606v.054c0 2.391 1.7055 4.377 3.942 4.8345-.4005.1095-.837.162-1.29.162-.315 0-.633-.018-.9315-.084.6375 1.9485 2.4465 3.381 4.5975 3.4275-1.674 1.3095-3.7995 2.0985-6.1005 2.0985-.4035 0-.7905-.018-1.1775-.0675 2.1795 1.4055 4.7625 2.208 7.548 2.208 9.054 0 14.004-7.5 14.004-14.001 0-.2175-.0075-.4275-.018-.636.9765-.693 1.797-1.5585 2.466-2.5545Z"/>
  </g>
  <defs>
    <clipPath id="a">
      <path fill="#fff" d="M0 0h24v24H0z"/>
    </clipPath>
  </defs>
</svg>
